<svg xmlns="http://www.w3.org/2000/svg" xmlns:xlink="http://www.w3.org/1999/xlink" class="svg-canvas"
  viewBox="0 0 800 600" width="800" height="600" preserveAspectRatio="none" version="1.1">
  <!--滤镜-->
  <defs />

  <!-- 背景 -->
  <!-- <g id="background">
    <rect x="0" y="0" fill="transparent" width="800" height="600" />

  </g> -->

  <!--元素-->

  <!-- <g id="shape_9Uvfof56Xo" ref="shape_9Uvfof56Xo" key="shape_9Uvfof56Xo" mask="">
    <g transform="translate(-130.44063797797764,-9.6282825754476) rotate(0,530.4406379779776,394.05310037572787) scale(1,1)"
      style="opacity: 1;mix-blend-mode: undefined;" filter="">
      <svg xmlns="http://www.w3.org/2000/svg" xmlns:xlink="http://www.w3.org/1999/xlink" version="1.1"
        width="1060.8812759559553" height="788.1062007514557" viewBox="0 0 762.2864 566.2864" data-ligature="true"
        data-parent="shape_9Uvfof56Xo">
        <g data-role="text" data-width="289.6528" data-height="94"
          transform="translate(236.31679999999997, 236.14319999999998)">
          <path
            d="M34.71-54.47L54.39-54.47L44.47-39.36L70.76-39.36L69.58-30.54L55.57-30.54L67.38 0.71L50.53 0.71L38.80-30.54L38.73-30.54L18.26 0.71L1.57 0.71L22.04-30.54L8.26-30.54L9.45-39.36L27.78-39.36L36.44-52.50L34.71-54.47ZM28.65-14.25L42.03-14.25L44.47 0.63L30.30 0.63L28.65-14.25Z"
            transform="translate(0 74) " fill="rgb(47, 47, 47)" stroke="rgb(47, 47, 47)" stroke-width="0.131"
            data-glyph-w="72.4132" data-glyph-h="102.32300000000001" data-glyph-ascender="78.71000000000001"
            data-glyph-descender="-23.613" data-kerning="0" />
          <path
            d="M29.67-0.87L36.91-51.87L34.71-54.23L71.31-54.23L63.76-0.87L29.67-0.87ZM22.35-47.38L18.73-47.38L11.96 0.55L1.02 0.55L8.74-54.47L33.37-54.47L32.43-47.78L29.12-35.03L32.11-35.03L31.17-28.26L26.84-8.11L14.88-8.11L15.82-14.80L18.18-14.80L21.02-28.26L18.10-28.26L19.05-35.03L22.35-47.38ZM42.82-8.74L52.97-8.74L55.18-24.40L45.02-24.40L42.82-8.74ZM48.09-46.36L46.12-32.27L56.28-32.27L58.25-46.36L48.09-46.36Z"
            transform="translate(72.4132 74) " fill="rgb(47, 47, 47)" stroke="rgb(47, 47, 47)" stroke-width="0.131"
            data-glyph-w="72.4132" data-glyph-h="102.32300000000001" data-glyph-ascender="78.71000000000001"
            data-glyph-descender="-23.613" data-kerning="0" />
          <path
            d="M28.65 0.71L17.55 0.71L21.02-2.13L22.04-9.60L15.98-9.60L14.56 0.71L1.10 0.71L6.38-36.52L39.28-36.52L34.79-4.49Q34.40-2.20 32.66-0.75Q30.93 0.71 28.65 0.71L28.65 0.71ZM71.31-51.48L70.21-44.00L55.73-41.56L55.02-36.52L66.20-36.52L69.58-39.51L68.16-29.04L40.54-29.04L44.31-55.96L57.77-55.96L56.75-49.04L71.31-51.48ZM67.06-21.57L66.04-14.09L51.56-11.65L50.85-6.61L62.18-6.61L62.02-6.69L65.41-9.68L63.91 0.71L36.29 0.71L40.06-26.05L53.52-26.05L52.58-19.13L67.06-21.57ZM27.94-51.48L38.41-51.48L39.51-38.02L29.04-38.02L28.89-39.36L6.61-38.02L7.56-44.71L12.44-53.84L10.63-55.96L27.08-55.96L21.41-45.57L28.34-45.97L27.94-51.48ZM18.89-29.83L18.34-26.05L24.32-26.05L24.87-29.83L18.89-29.83ZM17.39-19.28L16.92-16.37L22.98-16.37L23.38-19.28L17.39-19.28Z"
            transform="translate(144.8264 74) " fill="rgb(47, 47, 47)" stroke="rgb(47, 47, 47)" stroke-width="0.131"
            data-glyph-w="72.4132" data-glyph-h="102.32300000000001" data-glyph-ascender="78.71000000000001"
            data-glyph-descender="-23.613" data-kerning="0" />
          <path
            d="M49.82 0.71L39.36 0.71L44.47-6.61L46.28-20.07L34.47-20.07L37.62-42.74L46.99-42.74L49.12-45.89L59.27-45.89L57.22-42.74L70.13-42.74L66.98-20.07L56.28-20.07L54.15-4.49Q53.84-2.20 52.62-0.75Q51.40 0.71 49.82 0.71L49.82 0.71ZM25.42-54.47L72.33-54.47L71.39-47.70L36.60-47.70L28.10 0.71L17.71 0.71L27.00-51.63L25.42-54.47ZM12.44 0.71L0.08 0.71L7.32-21.57L19.68-21.57L12.44 0.71ZM20.31-24.56L7.87-24.56L7.01-38.02L19.44-38.02L20.31-24.56ZM22.59-41.01L10.15-41.01L9.29-54.47L21.72-54.47L22.59-41.01ZM57.85-17.16L65.64-17.16L65.88-0.71L58.09-0.71L57.85-17.16ZM35.58-17.16L43.21-17.16L38.25-0.63L30.54-0.63L35.58-17.16ZM43.45-26.21L59.74-26.21L60.13-28.97L43.84-28.97L43.45-26.21ZM44.94-36.68L44.55-33.92L60.84-33.92L61.24-36.68L44.94-36.68Z"
            transform="translate(217.2396 74) " fill="rgb(47, 47, 47)" stroke="rgb(47, 47, 47)" stroke-width="0.131"
            data-glyph-w="72.4132" data-glyph-h="102.32300000000001" data-glyph-ascender="78.71000000000001"
            data-glyph-descender="-23.613" data-kerning="0" />
        </g>
      </svg>
    </g>
  </g> -->

  <!-- <g id="shape_i5T3vM8S2z" ref="shape_i5T3vM8S2z" key="shape_i5T3vM8S2z" mask="">
    <g transform="translate(152.1571233530187,328.1850835015415) rotate(0,247.84287664698132,130.24341820422515) scale(1,1)"
      style="opacity: 1;mix-blend-mode: undefined;" filter="">
      <svg xmlns="http://www.w3.org/2000/svg" xmlns:xlink="http://www.w3.org/1999/xlink" version="1.1"
        width="495.68575329396265" height="260.4868364084503" viewBox="0 0 356.1704 187.1704" data-ligature="true"
        data-parent="shape_i5T3vM8S2z">
        <g data-role="text" data-width="199.61156074222956" data-height="31"
          transform="translate(78.27941962888522, 78.0852)">
          <path
            d="M8.22-2.67Q5.13-2.67 2.95-4.47L2.95-4.47Q0.76-6.28 0.76-8.83L0.76-8.83L4.13-8.83Q4.13-7.68 5.33-6.86L5.33-6.86Q6.53-6.04 8.22-6.04L8.22-6.04Q9.98-6.04 11.11-6.65L11.11-6.65Q12.30-7.30 12.30-8.38L12.30-8.38Q12.30-9.63 10.60-10.19L10.60-10.19Q10.37-10.27 6.86-10.97L6.86-10.97Q4.32-11.48 3.11-12.38L3.11-12.38Q1.41-13.64 1.41-16.09L1.41-16.09Q1.41-18.49 3.41-20.01L3.41-20.01Q5.33-21.48 8.22-21.48L8.22-21.48Q11.04-21.48 13.03-19.84L13.03-19.84Q15.02-18.20 15.02-15.89L15.02-15.89L11.66-15.89Q11.66-16.80 10.65-17.45L10.65-17.45Q9.65-18.10 8.22-18.10L8.22-18.10Q6.72-18.10 5.78-17.60L5.78-17.60Q4.78-17.06 4.78-16.09L4.78-16.09Q4.78-14.99 6.48-14.46L6.48-14.46Q7.08-14.27 8.22-14.07L8.22-14.07Q9.91-13.76 10.23-13.69L10.23-13.69Q12.74-13.17 13.97-12.20L13.97-12.20Q15.67-10.87 15.67-8.38L15.67-8.38Q15.67-5.85 13.49-4.23L13.49-4.23Q11.38-2.67 8.22-2.67L8.22-2.67Z"
            transform="translate(0 23) " fill="rgb(47, 47, 47)" stroke="rgb(47, 47, 47)" stroke-width="0.043"
            data-glyph-w="29.92480874023963" data-glyph-h="27.123056640625002" data-glyph-ascender="21.81029296875"
            data-glyph-descender="-5.312763671875" data-kerning="0" />
          <path
            d="M9.19-8.50L9.19-15.32L12.56-15.32L12.56-3.00L9.19-3.00L9.19-3.53Q7.91-2.67 6.28-2.67L6.28-2.67Q4.04-2.67 2.47-4.28L2.47-4.28Q0.89-5.90 0.89-8.19L0.89-8.19L0.89-15.32L4.26-15.32L4.26-8.50Q4.26-7.49 4.98-6.76L4.98-6.76Q5.71-6.04 6.72-6.04L6.72-6.04Q7.75-6.04 8.46-6.76L8.46-6.76Q9.19-7.49 9.19-8.50L9.19-8.50Z"
            transform="translate(29.92480874023963 23) " fill="rgb(47, 47, 47)" stroke="rgb(47, 47, 47)"
            stroke-width="0.043" data-glyph-w="26.937967919927132" data-glyph-h="27.123056640625002"
            data-glyph-ascender="21.81029296875" data-glyph-descender="-5.312763671875" data-kerning="0" />
          <path
            d="M4.26-9.80L4.26-3.00L0.89-3.00L0.89-15.32L4.26-15.32L4.26-14.76Q5.54-15.63 7.18-15.63L7.18-15.63Q9.41-15.63 10.98-14.02L10.98-14.02Q12.56-12.40 12.56-10.13L12.56-10.13L12.56-3.00L9.19-3.00L9.19-9.80Q9.19-10.83 8.46-11.54L8.46-11.54Q7.75-12.27 6.72-12.27L6.72-12.27Q5.71-12.27 4.98-11.54L4.98-11.54Q4.26-10.83 4.26-9.80L4.26-9.80Z"
            transform="translate(56.86277666016676 23) " fill="rgb(47, 47, 47)" stroke="rgb(47, 47, 47)"
            stroke-width="0.043" data-glyph-w="26.937967919927132" data-glyph-h="27.123056640625002"
            data-glyph-ascender="21.81029296875" data-glyph-descender="-5.312763671875" data-kerning="0" />
          <path
            d="M4.26-9.80L4.26-3.00L0.89-3.00L0.89-15.32L4.26-15.32L4.26-14.76Q5.54-15.63 7.18-15.63L7.18-15.63Q9.41-15.63 10.98-14.02L10.98-14.02Q12.56-12.40 12.56-10.13L12.56-10.13L12.56-3.00L9.19-3.00L9.19-9.80Q9.19-10.83 8.46-11.54L8.46-11.54Q7.75-12.27 6.72-12.27L6.72-12.27Q5.71-12.27 4.98-11.54L4.98-11.54Q4.26-10.83 4.26-9.80L4.26-9.80Z"
            transform="translate(83.80074458009389 23) " fill="rgb(47, 47, 47)" stroke="rgb(47, 47, 47)"
            stroke-width="0.043" data-glyph-w="26.937967919927132" data-glyph-h="27.123056640625002"
            data-glyph-ascender="21.81029296875" data-glyph-descender="-5.312763671875" data-kerning="0" />
          <path
            d="M12.18-7.47L4.36-7.47Q4.55-7.19 4.79-6.95L4.79-6.95Q5.71-6.04 6.99-6.04L6.99-6.04Q8.43-6.04 9.37-7.13L9.37-7.13L12.30-5.44Q10.37-2.67 6.99-2.67L6.99-2.67Q4.31-2.67 2.41-4.58L2.41-4.58Q0.51-6.47 0.51-9.15L0.51-9.15Q0.51-11.85 2.41-13.74L2.41-13.74Q4.31-15.63 6.99-15.63L6.99-15.63Q9.68-15.63 11.58-13.74L11.58-13.74Q13.47-11.85 13.47-9.15L13.47-9.15Q13.47-8.27 13.24-7.44L13.24-7.44L12.18-7.47ZM4.37-10.84L4.37-10.84L9.61-10.84Q9.43-11.11 9.19-11.35L9.19-11.35Q8.29-12.27 6.99-12.27L6.99-12.27Q5.71-12.27 4.79-11.35L4.79-11.35Q4.55-11.11 4.37-10.84Z"
            transform="translate(110.73871250002102 23) " fill="rgb(47, 47, 47)" stroke="rgb(47, 47, 47)"
            stroke-width="0.043" data-glyph-w="27.47178627930213" data-glyph-h="27.123056640625002"
            data-glyph-ascender="21.81029296875" data-glyph-descender="-5.312763671875" data-kerning="0" />
          <path
            d="M4.26-9.52L4.26-9.52L4.26-3.00L0.89-3.00L0.89-15.32L4.26-15.32L4.26-14.81Q5.59-15.63 7.28-15.63L7.28-15.63Q7.49-15.63 7.70-15.62L7.70-15.62L7.70-12.18Q7.36-12.27 7.00-12.27L7.00-12.27Q5.87-12.27 5.07-11.46L5.07-11.46Q4.26-10.66 4.26-9.52Z"
            transform="translate(138.21049877932316 23) " fill="rgb(47, 47, 47)" stroke="rgb(47, 47, 47)"
            stroke-width="0.043" data-glyph-w="21.701464013677132" data-glyph-h="27.123056640625002"
            data-glyph-ascender="21.81029296875" data-glyph-descender="-5.312763671875" data-kerning="0" />
          <path
            d="M6.67-6.04Q5.52-6.04 4.70-6.95L4.70-6.95Q3.88-7.87 3.88-9.15L3.88-9.15Q3.88-10.45 4.70-11.35L4.70-11.35Q5.52-12.27 6.67-12.27L6.67-12.27Q7.83-12.27 8.64-11.35L8.64-11.35Q9.46-10.45 9.46-9.15L9.46-9.15Q9.46-7.87 8.64-6.95L8.64-6.95Q7.83-6.04 6.67-6.04L6.67-6.04ZM9.46-3.46L9.46-3.32Q9.46-2.03 8.54-1.12L8.54-1.12Q7.64-0.20 6.34-0.20L6.34-0.20Q4.55-0.20 3.65-1.77L3.65-1.77L0.72-0.08Q1.59 1.40 3.06 2.28L3.06 2.28Q4.58 3.16 6.34 3.16L6.34 3.16Q9.04 3.16 10.93 1.27L10.93 1.27Q12.82-0.64 12.82-3.32L12.82-3.32L12.82-15.32L9.46-15.32L9.46-14.85Q8.15-15.63 6.55-15.63L6.55-15.63Q4.04-15.63 2.28-13.74L2.28-13.74Q0.51-11.85 0.51-9.15L0.51-9.15Q0.51-6.47 2.28-4.58L2.28-4.58Q4.04-2.67 6.55-2.67L6.55-2.67Q8.15-2.67 9.46-3.46L9.46-3.46Z"
            transform="translate(159.9119627930003 23) " fill="rgb(47, 47, 47)" stroke="rgb(47, 47, 47)"
            stroke-width="0.043" data-glyph-w="27.20487709961463" data-glyph-h="27.123056640625002"
            data-glyph-ascender="21.81029296875" data-glyph-descender="-5.312763671875" data-kerning="0" />
          <path
            d="M3.61-15.32L6.32-8.24L8.90-15.32L12.49-15.32L6.93-0.04Q6.24 1.86 4.41 2.71L4.41 2.71Q2.59 3.56 0.70 2.87L0.70 2.87Q0.39 2.76 0.10 2.61L0.10 2.61L1.30-0.66Q1.53-0.42 1.86-0.29L1.86-0.29Q2.43-0.09 2.99-0.34L2.99-0.34Q3.55-0.61 3.76-1.18L3.76-1.18L3.77-1.19L3.76-1.19L4.56-3.41L0-15.32L3.61-15.32Z"
            transform="translate(187.11683989261493 23) " fill="rgb(47, 47, 47)" stroke="rgb(47, 47, 47)"
            stroke-width="0.043" data-glyph-w="25.984720849614632" data-glyph-h="27.123056640625002"
            data-glyph-ascender="21.81029296875" data-glyph-descender="-5.312763671875" data-kerning="0" />
        </g>
      </svg>
    </g>
  </g> -->

  <g id="shape_e17HA5UvV1" ref="shape_e17HA5UvV1" key="shape_e17HA5UvV1" mask="">
    <g transform="translate(302.651274335675,120.00000000000003) rotate(0,97.34872566433201,99.50723406694755) scale(1,1)"
      style="opacity: 1;mix-blend-mode: undefined;" filter="">
      <!--普通元素-->
      <svg xmlns="http://www.w3.org/2000/svg" xmlns:xlink="http://www.w3.org/1999/xlink" version="1.1" id="图层_1" x="0px"
        y="0px" width="194.69745132866402" height="199.0144681338951"
        viewBox="0 0 180.39999389648438 184.39999389648438" style="enable-background:new 0 0 180.4 184.4;"
        xml:space="preserve" class="style-removed" preserveAspectRatio="none" data-parent="shape_e17HA5UvV1">

        <g>
          <g>
            <path d="M97.2,23.8c8.6,3.8,21.4,11.8,31.1,28.1h24v22.5h-14.6c2.2,8.1,3.7,17.4,4.1,28.1h38.6V23.8H97.2z"
              fill="#182987" stroke-width="0" />
            <path
              d="M105.2,105.8v14c0,15.2-9.3,28.2-22.5,33.7v-47.6c0,0-19.4,1.6-28.1,1.1v77.4h14c35.6,0,64.6-29,64.6-64.6    V111C127.8,108.8,119.1,106.5,105.2,105.8z"
              fill="#182987" stroke-width="0" />
          </g>
          <g>
            <g>
              <path
                d="M0,0c18.7,16.8,41.9,25.5,65.4,24.7l12.5-0.6c15.8,3.9,38,14.1,50.3,40.3c-4.1-1.4-8.6-2.1-13.5-2.2     c-60.7,2.5-77.2-11.1-77.2-11.1s16.5,18,71.7,18c9.1,0,16.5,1.5,22.5,4.1c2.9,8.6,4.7,21.4,4.4,32.7c-11.6-5.5-25.4-6.4-37.5-5.9     l-36.4,1.4C29.8,102.6,2.5,73,1.2,35.5L0,0L0,0z"
                fill="#F29600" stroke-width="0" />
            </g>
          </g>
        </g>
      </svg>
    </g>
  </g>
</svg>