<svg width="88" height="24" viewBox="0 0 88 24" fill="none" xmlns="http://www.w3.org/2000/svg">
<g clip-path="url(#clip0_201_1252)">
<path d="M40.7731 8.5976C40.7077 7.98583 40.4322 7.5095 39.9465 7.16859C39.4655 6.82768 38.8397 6.65722 38.0692 6.65722C37.5274 6.65722 37.0628 6.73895 36.6752 6.9024C36.2876 7.06585 35.991 7.28767 35.7855 7.56787C35.58 7.84807 35.475 8.16796 35.4703 8.52755C35.4703 8.82643 35.538 9.08562 35.6734 9.30511C35.8135 9.5246 36.0027 9.7114 36.2409 9.8655C36.479 10.0149 36.7429 10.141 37.0324 10.2438C37.322 10.3465 37.6138 10.4329 37.908 10.503L39.253 10.8392C39.7947 10.9653 40.3154 11.1357 40.8151 11.3506C41.3195 11.5654 41.7701 11.8362 42.1671 12.1631C42.5687 12.49 42.8862 12.8847 43.1197 13.347C43.3532 13.8093 43.47 14.351 43.47 14.9721C43.47 15.8127 43.2552 16.5529 42.8255 17.1927C42.3959 17.8278 41.7748 18.3252 40.9622 18.6848C40.1543 19.0397 39.1759 19.2172 38.0271 19.2172C36.911 19.2172 35.942 19.0444 35.1201 18.6988C34.3028 18.3532 33.663 17.8488 33.2007 17.1857C32.743 16.5226 32.4955 15.7147 32.4582 14.762H35.015C35.0523 15.2617 35.2064 15.6773 35.4773 16.0089C35.7482 16.3404 36.1008 16.588 36.5351 16.7514C36.974 16.9149 37.4644 16.9966 38.0061 16.9966C38.5712 16.9966 39.0662 16.9125 39.4912 16.7444C39.9208 16.5716 40.257 16.3334 40.4999 16.0299C40.7427 15.7217 40.8665 15.3621 40.8711 14.9511C40.8665 14.5775 40.7567 14.2693 40.5419 14.0265C40.3271 13.779 40.0259 13.5735 39.6383 13.41C39.2553 13.2419 38.807 13.0925 38.2933 12.9617L36.6612 12.5414C35.4796 12.2379 34.5456 11.7779 33.8592 11.1614C33.1773 10.5403 32.8364 9.71606 32.8364 8.68867C32.8364 7.8434 33.0653 7.10321 33.5229 6.46809C33.9852 5.83297 34.6134 5.34029 35.4073 4.99004C36.2012 4.63512 37.1001 4.45766 38.1042 4.45766C39.1222 4.45766 40.0142 4.63512 40.7801 4.99004C41.5506 5.34029 42.1554 5.8283 42.5944 6.45408C43.0333 7.07519 43.2598 7.7897 43.2739 8.5976H40.7731ZM45.6748 23.0349V8.24035H48.1686V10.0196H48.3157C48.4464 9.75809 48.6309 9.48023 48.8691 9.18602C49.1072 8.88714 49.4295 8.63263 49.8358 8.42248C50.2421 8.20766 50.7604 8.10025 51.3909 8.10025C52.2221 8.10025 52.9717 8.31273 53.6395 8.7377C54.312 9.158 54.8443 9.78144 55.2366 10.608C55.6336 11.43 55.832 12.4387 55.832 13.6342C55.832 14.8157 55.6382 15.8197 55.2506 16.6463C54.863 17.4729 54.3353 18.1034 53.6675 18.5377C52.9997 18.972 52.2431 19.1891 51.3979 19.1891C50.7814 19.1891 50.2701 19.0864 49.8638 18.8809C49.4575 18.6754 49.1306 18.4279 48.8831 18.1384C48.6403 17.8442 48.4511 17.5663 48.3157 17.3048H48.2106V23.0349H45.6748ZM48.1616 13.6202C48.1616 14.316 48.2596 14.9254 48.4558 15.4485C48.6566 15.9715 48.9438 16.3801 49.3174 16.6743C49.6957 16.9639 50.1533 17.1087 50.6904 17.1087C51.2508 17.1087 51.7201 16.9592 52.0984 16.6603C52.4766 16.3568 52.7615 15.9435 52.953 15.4205C53.1491 14.8927 53.2472 14.2927 53.2472 13.6202C53.2472 12.9524 53.1515 12.3593 52.96 11.8409C52.7685 11.3225 52.4837 10.9163 52.1054 10.622C51.7271 10.3278 51.2554 10.1807 50.6904 10.1807C50.1487 10.1807 49.6887 10.3232 49.3104 10.608C48.9321 10.8929 48.6449 11.2922 48.4488 11.8059C48.2573 12.3196 48.1616 12.9243 48.1616 13.6202ZM61.0998 19.2172C60.418 19.2172 59.8039 19.0957 59.2575 18.8529C58.7157 18.6054 58.2861 18.2411 57.9686 17.7601C57.6557 17.2791 57.4992 16.686 57.4992 15.9809C57.4992 15.3738 57.6113 14.8717 57.8355 14.4748C58.0596 14.0778 58.3655 13.7603 58.7531 13.5221C59.1407 13.2839 59.5774 13.1041 60.063 12.9827C60.5534 12.8566 61.0601 12.7656 61.5831 12.7095C62.2136 12.6441 62.7249 12.5858 63.1172 12.5344C63.5095 12.4784 63.7944 12.3943 63.9718 12.2822C64.1539 12.1655 64.245 11.9857 64.245 11.7428V11.7008C64.245 11.1731 64.0886 10.7645 63.7757 10.4749C63.4628 10.1854 63.0121 10.0406 62.4237 10.0406C61.8026 10.0406 61.3099 10.1761 60.9457 10.4469C60.5861 10.7178 60.3432 11.0377 60.2171 11.4066L57.8495 11.0704C58.0363 10.4166 58.3445 9.87017 58.7741 9.4312C59.2038 8.98755 59.7291 8.65598 60.3502 8.43649C60.9714 8.21233 61.6578 8.10025 62.4097 8.10025C62.9281 8.10025 63.4441 8.16096 63.9578 8.28238C64.4715 8.4038 64.9408 8.60461 65.3658 8.88481C65.7908 9.16034 66.1317 9.53627 66.3885 10.0126C66.6501 10.4889 66.7808 11.0844 66.7808 11.7989V19H64.3431V17.5219H64.259C64.1049 17.8208 63.8878 18.101 63.6076 18.3625C63.332 18.6194 62.9841 18.8272 62.5638 18.986C62.1482 19.1401 61.6602 19.2172 61.0998 19.2172ZM61.7582 17.3538C62.2673 17.3538 62.7086 17.2534 63.0822 17.0526C63.4558 16.8471 63.743 16.5763 63.9438 16.24C64.1493 15.9038 64.252 15.5372 64.252 15.1403V13.8724C64.1726 13.9377 64.0372 13.9984 63.8457 14.0545C63.6589 14.1105 63.4488 14.1596 63.2153 14.2016C62.9818 14.2436 62.7506 14.281 62.5218 14.3137C62.293 14.3464 62.0945 14.3744 61.9264 14.3977C61.5481 14.4491 61.2095 14.5332 60.9106 14.6499C60.6118 14.7667 60.3759 14.9301 60.2031 15.1403C60.0304 15.3457 59.944 15.6119 59.944 15.9388C59.944 16.4058 60.1144 16.7584 60.4553 16.9966C60.7962 17.2347 61.2305 17.3538 61.7582 17.3538ZM69.3306 19V8.24035H71.7894V10.0336H71.9015C72.0976 9.41252 72.4338 8.93384 72.9102 8.5976C73.3912 8.25669 73.9399 8.08624 74.5563 8.08624C74.6964 8.08624 74.8529 8.09324 75.0257 8.10725C75.2031 8.11659 75.3502 8.13294 75.467 8.15629V10.4889C75.3596 10.4516 75.1891 10.4189 74.9556 10.3909C74.7268 10.3582 74.505 10.3418 74.2902 10.3418C73.8278 10.3418 73.4122 10.4422 73.0433 10.6431C72.679 10.8392 72.3918 11.1124 72.1817 11.4626C71.9715 11.8129 71.8664 12.2168 71.8664 12.6745V19H69.3306ZM79.4633 15.6236L79.4563 12.5624H79.8626L83.7294 8.24035H86.6925L81.9361 13.5361H81.4107L79.4633 15.6236ZM77.1517 19V4.6538H79.6875V19H77.1517ZM83.9045 19L80.402 14.1035L82.1112 12.3172L86.9376 19H83.9045Z" fill="black"/>
<g clip-path="url(#clip1_201_1252)">
<mask id="mask0_201_1252" style="mask-type:alpha" maskUnits="userSpaceOnUse" x="0" y="0" width="24" height="24">
<path fill-rule="evenodd" clip-rule="evenodd" d="M16.9637 14.0764C13.0776 14.0764 9.92737 10.9254 9.92737 7.0382C9.92737 3.15104 13.0776 0 16.9637 0C20.8499 0 24.0001 3.15104 24.0001 7.0382C24.0001 10.9254 20.8499 14.0764 16.9637 14.0764ZM0 0.588886H1.12872L2.07196 11.4061C2.56478 17.0215 6.98955 21.4492 12.596 21.937L23.4116 22.8809V23.9997H0V0.588886Z" fill="#F4F1ED"/>
</mask>
<g mask="url(#mask0_201_1252)">
<rect y="-0.000228882" width="23.9998" height="23.9999" fill="url(#paint0_radial_201_1252)"/>
</g>
</g>
</g>
<defs>
<radialGradient id="paint0_radial_201_1252" cx="0" cy="0" r="1" gradientUnits="userSpaceOnUse" gradientTransform="translate(19.9998 3.99976) rotate(135) scale(28.2841 28.2839)">
<stop stop-color="#FFA113"/>
<stop offset="0.633807" stop-color="#610505"/>
<stop offset="0.942708" stop-color="#0085FF"/>
</radialGradient>
<clipPath id="clip0_201_1252">
<rect width="87.1233" height="24" fill="white"/>
</clipPath>
<clipPath id="clip1_201_1252">
<rect width="24" height="23.9997" fill="white"/>
</clipPath>
</defs>
</svg>
