<svg width="158" height="32" viewBox="0 0 158 32" fill="none" xmlns="http://www.w3.org/2000/svg">
<g clip-path="url(#clip0_1461_769)">
<path d="M0 0H31.5972V32H0V0Z" fill="#FF5A00"/>
<path d="M88.364 6.33179C88.6347 6.33179 88.7023 6.67221 88.7023 6.94455C88.77 8.03391 88.8376 9.05519 88.8376 10.1446C88.9053 11.1658 88.9053 12.1871 88.9053 13.2084C89.5142 12.7318 90.0555 12.2552 90.7321 12.0509C91.8147 11.5743 93.1002 11.5743 94.1828 12.119C95.333 12.7318 96.0773 13.8211 96.4832 14.9786C96.8215 16.136 96.9568 17.3616 96.8892 18.519C96.7538 19.9488 96.4156 21.3105 95.6036 22.468C95.13 23.1488 94.5211 23.6935 93.7091 23.9658C92.4236 24.4424 91.0704 24.2382 89.9202 23.5573C89.5819 23.3531 89.2436 23.0126 88.973 22.7403C88.8376 23.1488 88.77 23.5573 88.6347 23.9658C88.0257 23.9658 87.4844 24.0339 86.8755 23.8977C87.0785 22.9446 87.0785 21.9233 87.1461 20.9701C87.2138 17.4977 87.1461 14.0254 87.1461 10.6211C87.0785 9.25945 87.1461 7.89774 86.9432 6.60413C87.3491 6.46796 87.8904 6.33179 88.364 6.33179ZM92.8296 13.4807C92.2883 13.3446 91.747 13.3446 91.2734 13.4126C90.3261 13.5488 89.5819 14.2297 88.973 14.9105C88.973 15.1148 88.973 15.3871 88.973 15.5914V21.1063C88.973 21.3105 89.1083 21.4467 89.2436 21.5148C90.1908 22.3999 91.544 22.8084 92.7619 22.536C93.3709 22.3999 93.9121 21.9914 94.1828 21.4467C94.6564 20.6977 94.7917 19.8126 94.8594 18.9275C94.927 18.2467 94.9947 17.5658 94.927 16.9531C94.927 16.2041 94.724 15.3871 94.3181 14.7063C93.9798 14.0254 93.4385 13.6169 92.8296 13.4807ZM100.61 6.80838C100.949 6.67221 101.422 6.67221 101.761 6.87647C102.099 7.08072 102.37 7.42115 102.505 7.76157C102.708 8.5786 102.099 9.4637 101.287 9.53179C100.678 9.59987 100.002 9.25945 99.7985 8.5786C99.5279 7.96583 99.9339 7.08072 100.61 6.80838ZM44.6557 8.23817C45.5353 7.6254 46.6178 7.14881 47.7004 7.14881C48.8506 7.14881 50.0008 7.21689 51.0157 7.69349C51.4217 7.89774 51.8276 8.102 52.2336 8.37434C51.963 8.85094 51.6247 9.19136 51.2864 9.59987C50.8804 9.39562 50.4744 9.12328 50.0008 8.91902C48.9183 8.51051 47.6327 8.44243 46.5502 8.91902C45.6029 9.25945 44.8587 10.0084 44.385 10.8935C44.1144 11.5743 43.8438 12.2552 43.7084 12.936C43.5731 13.6169 43.5731 14.2977 43.5055 14.9786C43.5055 15.8637 43.4378 16.8169 43.5055 17.702C43.6408 18.9956 44.1144 20.2211 44.9263 21.1743C45.6706 22.0594 46.7531 22.536 47.9034 22.6722C48.5123 22.6722 49.0536 22.6722 49.6625 22.536C50.3391 22.3999 50.9481 21.9914 51.6247 21.719C51.963 22.0594 52.3013 22.536 52.6396 22.9446C52.1659 23.2169 51.6923 23.4892 51.151 23.6935C49.7978 24.2382 48.2417 24.3063 46.8208 24.102C45.7382 23.8977 44.791 23.3531 43.9791 22.6722C43.0318 21.8552 42.3552 20.7658 41.9493 19.6084C41.6786 18.7914 41.5433 17.9743 41.4757 17.1573C41.4757 16.5446 41.3403 15.9318 41.4757 15.2509C41.4757 14.0935 41.6786 12.868 42.1523 11.7786C42.6259 10.4169 43.4378 9.12328 44.6557 8.23817Z" fill="#FF5A00"/>
<path d="M9.33691 7.96597C9.47223 7.96597 9.60755 7.89788 9.74287 7.89788C10.4195 7.89788 11.0961 7.89788 11.7727 7.96597C11.908 7.96597 11.908 8.03405 11.9757 8.10214C12.9906 10.2128 14.0054 12.3915 15.088 14.5702C15.291 15.0468 15.494 15.4553 15.7646 15.8638C15.9676 15.5234 16.1706 15.183 16.3735 14.7745C17.5238 12.4596 18.674 10.2128 19.8242 7.89788C20.5685 7.89788 21.3127 7.8298 22.1246 7.96597C21.9893 8.44256 21.7187 8.78299 21.5157 9.1915C20.0272 12.1192 18.471 15.0468 16.9148 17.9745C16.8472 18.1106 16.8472 18.1787 16.8472 18.3149C16.8472 20.4255 16.8472 22.5362 16.8472 24.5787C16.1029 24.5787 15.3586 24.5787 14.6144 24.5787C14.6144 22.5362 14.6144 20.4936 14.6144 18.4511C14.6144 18.2468 14.6144 17.9745 14.4791 17.7702C13.0582 15.1149 11.705 12.4596 10.2842 9.73618C10.0135 9.1915 9.67521 8.57873 9.33691 7.96597Z" fill="#FFFEFE"/>
<path d="M131.396 8.91898C132.005 8.71472 132.614 8.57855 133.29 8.44238C133.155 9.59983 133.087 10.7573 133.087 11.9828C134.034 11.9828 135.049 11.9828 135.997 12.0509C135.861 12.5275 135.658 12.936 135.455 13.3445C134.643 13.3445 133.831 13.3445 132.952 13.3445C132.952 14.4339 132.952 15.5232 132.952 16.6126C132.952 17.4296 133.02 18.3147 132.952 19.1998C132.952 20.153 132.952 21.1743 133.02 22.1275C133.02 22.536 133.426 22.8083 133.764 22.9445C134.373 23.0807 134.982 23.0126 135.591 22.8764C135.726 23.2168 135.794 23.6254 135.794 23.9658C135.252 24.2381 134.643 24.3062 134.034 24.3743C133.223 24.3743 132.275 24.2381 131.666 23.6254C131.193 23.1488 131.193 22.3998 131.125 21.7871C131.057 20.4254 131.125 18.9956 131.057 17.6339C131.057 16.2041 131.057 14.8424 131.057 13.4126C130.516 13.4126 129.975 13.4126 129.501 13.4126C129.501 12.936 129.501 12.4594 129.501 12.0509C130.043 12.0509 130.516 12.0509 131.057 12.0509C131.26 10.9615 131.26 9.87217 131.396 8.91898ZM59.6762 11.6424C60.1498 11.6424 60.6911 11.6424 61.1647 11.7786C62.2473 12.119 63.1945 12.936 63.7358 13.8892C64.2094 14.7743 64.5477 15.7275 64.6153 16.7488C64.683 18.1105 64.7507 19.4722 64.277 20.7658C63.8711 21.9913 63.0592 23.0807 61.909 23.6934C60.7587 24.3062 59.4055 24.3743 58.1877 24.0339C57.1051 23.7615 56.1579 23.0126 55.4813 22.0594C54.8047 21.0381 54.534 19.8126 54.534 18.519C54.534 17.3615 54.4664 16.136 54.8723 14.9786C55.2106 13.8892 55.9549 12.8679 56.9698 12.1871C57.4434 11.9147 57.917 11.6424 58.4583 11.5743C58.8643 11.6424 59.2702 11.6424 59.6762 11.6424ZM58.7289 13.2083C58.12 13.3445 57.5111 13.753 57.1728 14.2977C56.6991 15.1147 56.5638 16.0679 56.5638 17.0211C56.4962 17.702 56.5638 18.3828 56.6315 19.0637C56.7668 19.8807 56.9021 20.7658 57.3081 21.5147C57.714 22.3317 58.5936 22.6722 59.4732 22.7403C60.2851 22.8083 61.1647 22.6041 61.7736 21.9232C62.2473 21.3786 62.5179 20.7658 62.5856 20.0169C62.7209 19.1317 62.7209 18.2466 62.6532 17.4296C62.6532 16.5445 62.5179 15.5913 62.1796 14.7062C61.9766 14.1615 61.5707 13.753 61.097 13.4807C60.3528 13.0722 59.5409 13.0041 58.7289 13.2083ZM67.9307 12.0509C68.472 11.8466 69.0132 11.7105 69.6222 11.6424C69.8252 12.1871 69.9605 12.7317 70.0281 13.3445C70.4341 13.1403 70.7047 12.7998 71.1107 12.5956C71.9226 11.9828 72.9375 11.6424 73.9524 11.6424C74.1554 11.6424 74.426 11.7105 74.629 11.8466C74.9673 12.0509 75.3056 12.1871 75.6439 12.4594C75.9146 12.7317 76.1175 13.1403 76.3205 13.4807C76.7941 13.2764 77.1324 12.8679 77.5384 12.5956C78.215 12.119 79.0269 11.7105 79.9742 11.6424C80.7861 11.5743 81.598 11.8466 82.2069 12.3913C82.4776 12.6637 82.7482 12.936 82.8835 13.2764C83.0189 13.6169 83.0865 13.9573 83.0865 14.3658C83.2218 16.2722 83.1542 18.2466 83.2218 20.153C83.2218 21.4466 83.2218 22.7403 83.2218 24.0339C82.6129 24.0339 81.9363 24.0339 81.3274 24.0339C81.3274 22.1275 81.3274 20.153 81.3274 18.2466C81.3274 17.0211 81.3274 15.7956 81.2597 14.502C81.192 14.0934 80.9891 13.753 80.6508 13.4807C80.3125 13.2764 79.8388 13.2764 79.3652 13.2764C78.621 13.3445 78.012 13.8211 77.4031 14.2977C77.1324 14.502 76.8618 14.7743 76.5912 14.9786C76.5235 15.0466 76.5235 15.1828 76.5235 15.2509C76.5235 18.1786 76.5235 21.0381 76.5235 23.9658C75.9146 23.9658 75.238 23.9658 74.629 23.9658V17.1573C74.629 16.6126 74.629 16.0679 74.629 15.5232C74.629 14.9786 74.629 14.3658 74.426 13.8892C74.0201 13.3445 73.2758 13.2083 72.6669 13.4126C71.7196 13.6169 70.9077 14.2296 70.1635 14.9105C70.0281 14.9786 70.0281 15.1147 70.0281 15.2509C70.0281 18.1786 70.0281 21.1062 70.0281 24.0339C69.4869 24.0339 68.9456 24.0339 68.4043 24.0339C68.3366 21.0381 68.4043 18.0424 68.269 15.0466C68.269 14.3658 68.269 13.6849 68.1337 13.0041C68.066 12.6637 67.9307 12.3232 67.9307 12.0509ZM100.204 11.9828C100.813 11.9147 101.422 11.7786 102.031 11.6424C102.099 13.3445 102.099 15.0466 102.099 16.6807C102.099 19.1317 102.099 21.5147 102.099 23.9658C101.49 23.9658 100.813 23.9658 100.204 23.9658C100.204 20.4934 100.204 17.0211 100.204 13.5488C100.204 13.0722 100.137 12.4594 100.204 11.9828ZM124.494 11.7105C125.78 11.9147 126.863 13.1403 126.93 14.502C126.998 16.4764 126.93 18.519 126.93 20.4934V21.1062C126.93 21.5147 126.93 21.9232 127.065 22.2637C127.133 22.6722 127.539 22.8764 127.81 23.0807C127.539 23.4211 127.336 23.8977 126.998 24.17C126.795 24.3743 126.524 24.17 126.389 24.0339C125.915 23.6934 125.645 23.2169 125.374 22.6722C124.968 22.8764 124.697 23.2849 124.224 23.4892C123.547 23.9658 122.735 24.17 121.856 24.17C121.111 24.17 120.367 24.0339 119.691 23.6934C118.608 23.0807 117.999 21.8551 118.067 20.6296C118.067 19.4722 118.676 18.3147 119.555 17.6339C120.638 16.8169 122.059 16.5445 123.412 16.4083C124.021 16.3403 124.63 16.3403 125.306 16.3403C125.306 15.7275 125.306 15.1147 125.171 14.502C125.103 14.0254 124.833 13.4807 124.359 13.2083C123.818 12.936 123.141 12.8679 122.532 13.0041C121.382 13.1403 120.299 13.6169 119.352 14.2977C119.082 13.9573 118.811 13.6169 118.608 13.2083C118.473 13.0041 118.676 12.8679 118.811 12.7998C120.097 12.119 121.45 11.5062 122.938 11.5062H123.547C123.885 11.6424 124.156 11.6424 124.494 11.7105ZM123.682 17.77C123.074 17.8381 122.532 17.8381 121.923 17.9743C121.247 18.1786 120.638 18.5871 120.232 19.1998C120.029 19.5403 120.029 19.9488 120.029 20.3573C120.029 20.7658 119.961 21.2424 120.164 21.6509C120.299 22.0594 120.638 22.4679 121.044 22.6041C121.517 22.8083 122.059 22.8083 122.6 22.8083C123.209 22.7403 123.75 22.3998 124.224 21.9913C124.63 21.6509 125.036 21.2424 125.036 20.6977C125.103 19.7445 125.103 18.7232 125.103 17.77C124.63 17.8381 124.156 17.702 123.682 17.77ZM144.251 11.7786C145.334 12.0509 146.281 12.7317 146.958 13.6169C147.499 14.3658 147.837 15.1828 147.972 16.0679C148.108 16.8849 148.175 17.77 148.108 18.6551C148.108 20.0849 147.634 21.4466 146.822 22.536C146.146 23.4211 145.063 23.9658 144.048 24.17C142.763 24.3743 141.342 24.17 140.192 23.353C139.244 22.6722 138.635 21.5828 138.297 20.4254C138.094 19.8126 138.094 19.2679 138.026 18.6551C138.026 17.6339 138.026 16.6807 138.162 15.6594C138.432 14.57 138.974 13.4807 139.786 12.6637C140.395 12.0509 141.206 11.7105 142.018 11.5743C142.83 11.5743 143.575 11.6424 144.251 11.7786ZM142.221 13.2083C141.342 13.3445 140.597 14.0254 140.327 14.8424C139.989 15.7275 139.989 16.6807 139.989 17.5658C139.989 18.4509 139.989 19.336 140.192 20.153C140.327 20.7658 140.462 21.3105 140.868 21.7871C141.206 22.2637 141.815 22.536 142.357 22.6041C142.56 22.6722 142.83 22.6722 143.033 22.6722H143.236H143.439C143.913 22.6041 144.319 22.4679 144.725 22.2637C145.198 21.9913 145.537 21.5147 145.74 20.97C145.943 20.3573 146.01 19.6764 146.078 19.0637C146.078 18.3147 146.146 17.5658 146.078 16.7488C146.01 15.9317 145.943 15.1147 145.537 14.4339C145.198 13.8892 144.725 13.4807 144.116 13.2083C143.507 13.0722 142.83 13.0722 142.221 13.2083ZM151.355 12.119C151.964 11.9828 152.506 11.7786 153.047 11.6424C153.385 12.2551 153.385 12.936 153.453 13.5488C153.724 13.3445 153.994 13.0722 154.265 12.7998C155.077 11.9828 156.295 11.5062 157.445 11.7105V11.8466C157.174 12.3913 157.039 13.0041 156.768 13.6169C156.768 13.753 156.565 13.6849 156.498 13.6849C156.024 13.6849 155.415 13.6849 155.009 13.9573C154.535 14.2296 154.197 14.57 153.859 14.9786C153.521 15.3871 153.588 15.9317 153.588 16.4083C153.588 17.0892 153.521 17.77 153.588 18.4509C153.588 20.2892 153.588 22.1956 153.588 24.0339C152.979 24.0339 152.303 24.0339 151.694 24.0339C151.694 21.9913 151.694 19.8807 151.694 17.8381C151.694 16.4083 151.694 15.0466 151.626 13.6169C151.558 13.0722 151.423 12.5956 151.355 12.119ZM105.753 12.119C106.294 11.9147 106.903 11.7105 107.444 11.7105C107.647 12.2551 107.782 12.8679 107.85 13.4126C108.324 13.0722 108.797 12.6637 109.271 12.3913C110.286 11.7786 111.504 11.37 112.586 11.7786C113.263 11.9828 113.872 12.3913 114.278 13.0041C114.616 13.4126 114.684 14.0254 114.751 14.502C114.887 16.4083 114.819 18.2466 114.819 20.153C114.819 21.4466 114.819 22.6722 114.819 23.8977C114.21 23.8977 113.533 23.8977 112.925 23.8977C112.925 21.8551 112.857 19.7445 112.857 17.702C112.857 16.5445 112.857 15.3871 112.722 14.2296C112.519 13.6849 112.045 13.2083 111.436 13.2083C111.03 13.2083 110.556 13.2083 110.151 13.3445C109.271 13.6849 108.459 14.2296 107.715 14.8424C107.715 17.8381 107.715 20.902 107.715 23.8977C107.173 23.8977 106.632 23.8977 106.091 23.8977C106.091 22.1956 106.023 20.4934 106.023 18.7232C106.023 16.953 106.023 15.1828 105.888 13.4126C106.023 13.0722 105.888 12.5956 105.753 12.119Z" fill="#FF5A00"/>
</g>
<defs>
<clipPath id="clip0_1461_769">
<rect width="157.377" height="32" fill="white"/>
</clipPath>
</defs>
</svg>
